<svg width="25" height="20" viewBox="0 0 25 20" fill="none" xmlns="http://www.w3.org/2000/svg">
<path d="M8.96094 0C8.6818 1.1396 9.20321 2.36577 10.7569 3.67217C11.3468 3.36276 12.4212 3.20784 13.3903 3.32583C10.9676 2.37893 9.8879 1.3255 8.96094 0ZM0.554595 0.264845C1.31143 2.23675 3.28807 4.60167 5.84299 6.27817C3.9422 6.18055 1.64693 5.63304 0.00526683 5.20436C1.31986 6.69836 3.38498 7.4496 5.44798 8.01834C4.13286 8.76958 2.54545 9.53355 0 9.66088C2.87778 10.4758 5.66392 10.0386 6.91742 9.69059C5.97466 11.1719 1.6127 12.5003 0.475593 12.9587C3.28069 13.137 6.88582 12.4918 9.27168 11.5623C9.79836 12.6064 9.18742 13.8203 8.73974 14.8644C8.63967 15.0554 8.5396 15.2421 8.43953 15.4289C8.70814 15.2803 8.97148 15.1318 9.22428 14.979C10.4672 14.2914 11.7418 13.6251 12.358 12.4833C13.7327 13.8076 15.6603 15.1191 17.9935 16.108C18.9099 17.046 19.484 18.1877 19.7948 19.2403C20.2319 18.4296 20.5216 17.5341 20.3056 16.681C21.596 16.5282 22.1806 15.4204 22.1754 14.3721C21.5117 14.6352 21.3801 14.6394 20.5321 14.7201C20.5321 14.2914 20.5637 14.1896 20.3741 13.502C19.8316 13.8585 19.2681 13.9773 18.7519 14.0028C18.8625 13.6802 18.9099 13.1752 18.9468 12.8441C18.2621 13.1455 17.9356 13.2558 17.3615 13.3025C17.3404 12.8399 17.3562 12.4536 17.1456 12.0122C15.5866 12.8186 14.5859 12.0759 13.5641 11.1082C14.607 10.3867 18.6413 10.1829 18.5729 11.4095C19.3102 11.0997 19.563 10.9342 19.8158 10.7347C20.2951 11.0955 20.5216 11.6217 20.6111 12.0674C21.1009 11.6684 21.1536 11.6217 21.5117 11.0573C21.8119 11.4859 21.9752 11.7788 22.0753 12.356C22.523 12.0929 22.8864 11.8 23.1181 11.4477C23.5131 12.1056 23.5553 12.1268 23.7712 12.8484C24.7087 12.2923 24.9194 11.5241 24.972 10.8281C25.0774 9.42744 24.9562 6.23573 23.3393 4.76296C23.4289 6.30364 22.6494 7.73397 21.5591 8.18811C20.8955 8.39608 16.4767 5.02186 14.312 4.22817C13.0743 3.79525 11.7787 4.52952 10.7411 4.62289C6.75942 3.64246 3.41868 2.14592 0.554595 0.264845ZM14.6122 5.6203C15.3127 6.50736 16.3081 7.18645 17.7776 7.95467C16.7558 8.07775 14.312 7.6703 13.6853 6.93604C13.3956 6.60074 14.0592 6.032 14.6122 5.6203ZM8.52907 12.6786C7.77065 12.9417 6.99116 13.1412 6.2222 13.2855C6.0958 13.4383 5.39532 14.4018 5.39532 14.4018C6.1748 14.6267 7.13336 14.8771 7.79698 14.6989C7.97078 14.2829 8.48166 13.0309 8.52907 12.6786ZM6.2222 13.2855L4.41042 13.5529C2.73505 15.1063 1.15027 17.933 1.86972 20H4.7633C4.17763 18.3999 4.17658 16.0995 6.2222 13.2855ZM5.39532 14.4018C5.08457 14.8856 4.59476 16.091 4.41569 16.5154C5.09511 16.7998 6.09053 16.7107 6.91742 16.681C7.15969 16.2353 7.54417 15.187 7.79698 14.6989C6.98589 14.7753 6.1432 14.6394 5.39532 14.4018ZM11.2625 14.6819C10.6305 15.1275 9.9353 15.5435 9.21375 15.9382C9.58243 17.3813 10.9729 18.6291 13.1059 20H17.4932C14.4806 18.6503 12.5108 16.8889 11.2625 14.6819ZM4.41569 16.5154C4.28402 17.0163 4.24188 17.4789 4.25769 17.9118C6.2222 18.5145 8.57212 18.3108 10.4155 17.9118C10.0363 17.4746 9.41916 16.4178 9.21375 15.9382C7.4915 16.3372 5.58492 16.9568 4.41569 16.5154ZM10.4155 17.9118C8.40885 18.3744 6.29594 18.4593 4.25769 17.9118C4.35249 18.3532 4.60529 19.6053 4.7633 20H13.1059C12.5108 19.5841 10.8737 18.3405 10.4155 17.9118Z" fill="#ACACAC"/>
</svg>
